<svg id="Layer_1" data-name="Layer 1" xmlns="http://www.w3.org/2000/svg" viewBox="0 0 357.84 98.38"><defs><style>.cls-1{fill:#414042;}</style></defs><path class="cls-1" d="M74.08,3.34V95.15a2.36,2.36,0,0,1-2.35,2.36H60.23A4.88,4.88,0,0,1,56,95.28L16.5,37.91V95a2.39,2.39,0,0,1-2.36,2.48H2.48A2.41,2.41,0,0,1,0,95V3.22A2.35,2.35,0,0,1,2.35.87H13.77A4.71,4.71,0,0,1,18,3.1l39.53,55V3.34A2.38,2.38,0,0,1,59.86.87H71.6A2.41,2.41,0,0,1,74.08,3.34Z"/><path class="cls-1" d="M87.49,49.19C87.49,21.93,108.43,0,137.54,0s49.94,21.93,49.94,49.19-20.94,49.19-49.94,49.19S87.49,76.45,87.49,49.19Zm77.12,0c0-15-11.26-32.82-27.13-32.69s-27.13,17.7-27.13,32.69,11.26,32.69,27.13,32.69S164.61,64.18,164.61,49.19Z"/><path class="cls-1" d="M278.82,3.22V61.7c0,20.2-14.12,36.68-40,36.68S200.88,81.9,200.88,61.7V3.22A2.28,2.28,0,0,1,203.24.87H221.7a2.27,2.27,0,0,1,2.35,2.35V63.56c0,9.92,7,18.34,19.28,18.34s19-8.42,19-18.34V3.22A2.27,2.27,0,0,1,264.71.87h11.76A2.27,2.27,0,0,1,278.82,3.22Z"/><path class="cls-1" d="M297.68,70.28a3.23,3.23,0,0,1,4.83-.79,71.83,71.83,0,0,0,8.57,6.79,25.7,25.7,0,0,0,11.29,4.6,32.09,32.09,0,0,0,6.21.3c5.07-.78,10.14-1.87,10.85-7.63.5-4-5.61-7.16-10.68-10.14-19.72-11.72-36-19.45-36-36.3,0-15.8,8.59-27.09,29.4-27.09,16.48,0,26.27,8.82,29.49,11.32a3.51,3.51,0,0,1,.75,4.74l-5.21,7c-1.74,2.5-3.36,3-5.33,1.71-9.55-6.25-13.05-7.62-21.09-7.64-4.84,0-9.78,2.22-9.78,6.43,0,3.56,4.25,6.86,9.3,10,17.77,10.42,37.52,18.6,37.52,37.16,0,17.78-11.61,27.6-31.92,27.6-19.09,0-31.64-13.31-34.61-16.21-1.24-1-1.86-2.37-.38-4.61Z"/></svg>