<svg id="Layer_1" data-name="Layer 1" xmlns="http://www.w3.org/2000/svg" viewBox="0 0 114.43 133.47"><defs><style>.cls-1{fill:#414042;}.cls-2{fill:#20bed8;}</style></defs><path class="cls-1" d="M57.21,133.47,0,103V31.59L57.21,0l57.22,31.59V103ZM13.09,95.14l44.12,23.49,44.12-23.49V39.31L57.21,15,13.09,39.31Z"/><path class="cls-2" d="M82.5,44V87.2A5.8,5.8,0,0,0,84.87,92v.31H70V92a5.87,5.87,0,0,0,2.44-4.8c0-10.76-26.24-20.07-30.43-27.77V87.2A5.87,5.87,0,0,0,44.44,92v.31H29.56V92A5.87,5.87,0,0,0,32,87.2V44a5.9,5.9,0,0,0-2.44-4.81v-.3H44.44v.3A5.9,5.9,0,0,0,42,44C42,54.09,67.93,63.4,72.43,71.33V44A5.9,5.9,0,0,0,70,39.21v-.3H84.87v.3A5.84,5.84,0,0,0,82.5,44Z"/></svg>