<svg id="Layer_1" data-name="Layer 1" xmlns="http://www.w3.org/2000/svg" viewBox="0 0 357.84 313.33"><defs><style>.cls-1{fill:#fff;}</style></defs><polygon class="cls-1" points="72.76 313 75.46 313 75.46 306.71 80.64 306.71 80.64 304.1 75.46 304.1 75.46 301.31 84.03 301.31 84.03 298.7 72.76 298.7 72.76 313"/><path class="cls-1" d="M100.45,298.41a7.46,7.46,0,1,0,7.27,7.49A7.12,7.12,0,0,0,100.45,298.41Zm4.5,7.49a4.51,4.51,0,1,1-4.5-4.86A4.51,4.51,0,0,1,105,305.9Z"/><path class="cls-1" d="M127.78,307.79c0,2.43-.54,2.92-3.18,2.92s-3.17-.49-3.17-2.92V298.7h-2.7v9.55c0,3.56,1.75,5.08,5.87,5.08s5.88-1.52,5.88-5.08V298.7h-2.7Z"/><polygon class="cls-1" points="151.8 307.63 144.2 298.7 142.56 298.7 142.56 313 145.26 313 145.26 304.06 152.89 313 154.5 313 154.5 298.7 151.8 298.7 151.8 307.63"/><path class="cls-1" d="M173,298.7h-6.09V313H173c4.46,0,7.34-2.79,7.34-7.1A7,7,0,0,0,173,298.7Zm4.59,7.17c0,2.83-1.71,4.52-4.59,4.52h-3.39v-9.08H173A4.29,4.29,0,0,1,177.56,305.87Z"/><path class="cls-1" d="M195.79,298.7,188.93,313h2.93l1.71-3.56H200L201.8,313h3l-6.94-14.3Zm3,8.12h-3.95l2-4.07Z"/><polygon class="cls-1" points="210.37 301.31 215.81 301.31 215.81 313 218.51 313 218.51 301.31 223.97 301.31 223.97 298.7 210.37 298.7 210.37 301.31"/><rect class="cls-1" x="233.2" y="298.63" width="2.72" height="14.42"/><path class="cls-1" d="M254.53,298.41a7.46,7.46,0,1,0,7.27,7.49A7.13,7.13,0,0,0,254.53,298.41ZM259,305.9a4.51,4.51,0,1,1-4.49-4.86A4.51,4.51,0,0,1,259,305.9Z"/><polygon class="cls-1" points="282.38 298.7 282.38 307.63 274.77 298.7 273.14 298.7 273.14 313 275.84 313 275.84 304.06 283.47 313 285.08 313 285.08 298.7 282.38 298.7"/><path class="cls-1" d="M178.92,133.47,121.71,103V31.59L178.92,0l57.21,31.59V103ZM134.8,95.14l44.12,23.49L223,95.14V39.31L178.92,15,134.8,39.31Z"/><path class="cls-1" d="M204.21,44V87.2a5.82,5.82,0,0,0,2.36,4.8v.31H191.7V92a5.89,5.89,0,0,0,2.44-4.8c0-10.76-26.24-20.07-30.44-27.77V87.2a5.89,5.89,0,0,0,2.44,4.8v.31H151.27V92a5.89,5.89,0,0,0,2.44-4.8V44a5.93,5.93,0,0,0-2.44-4.81v-.3h14.87v.3A5.93,5.93,0,0,0,163.7,44c0,10.07,25.94,19.38,30.44,27.31V44a5.93,5.93,0,0,0-2.44-4.81v-.3h14.87v.3A5.85,5.85,0,0,0,204.21,44Z"/><path class="cls-1" d="M74.08,178.21V270a2.36,2.36,0,0,1-2.35,2.36H60.23A4.88,4.88,0,0,1,56,270.15L16.5,212.78V269.9a2.39,2.39,0,0,1-2.36,2.48H2.48A2.41,2.41,0,0,1,0,269.9V178.09a2.35,2.35,0,0,1,2.35-2.35H13.77A4.71,4.71,0,0,1,18,178l39.53,55V178.21a2.38,2.38,0,0,1,2.35-2.47H71.6A2.41,2.41,0,0,1,74.08,178.21Z"/><path class="cls-1" d="M87.49,224.06c0-27.26,20.94-49.19,50.05-49.19s49.94,21.93,49.94,49.19-20.94,49.19-49.94,49.19S87.49,251.32,87.49,224.06Zm77.12,0c0-15-11.26-32.82-27.13-32.69s-27.13,17.7-27.13,32.69,11.26,32.69,27.13,32.69S164.61,239.05,164.61,224.06Z"/><path class="cls-1" d="M278.82,178.09v58.48c0,20.2-14.12,36.68-40,36.68s-37.92-16.48-37.92-36.68V178.09a2.28,2.28,0,0,1,2.36-2.35H221.7a2.27,2.27,0,0,1,2.35,2.35v60.34c0,9.92,7,18.34,19.28,18.34s19-8.42,19-18.34V178.09a2.27,2.27,0,0,1,2.35-2.35h11.76A2.27,2.27,0,0,1,278.82,178.09Z"/><path class="cls-1" d="M297.68,245.15a3.23,3.23,0,0,1,4.83-.79,71.83,71.83,0,0,0,8.57,6.79,25.7,25.7,0,0,0,11.29,4.6,32.09,32.09,0,0,0,6.21.3c5.07-.78,10.14-1.87,10.85-7.63.5-4-5.61-7.16-10.68-10.14-19.72-11.72-36-19.45-36-36.3,0-15.8,8.59-27.09,29.4-27.09,16.48,0,26.27,8.82,29.49,11.32a3.51,3.51,0,0,1,.75,4.74l-5.21,7c-1.74,2.5-3.36,3-5.33,1.71-9.55-6.25-13.05-7.62-21.09-7.64-4.84,0-9.78,2.22-9.78,6.43,0,3.56,4.25,6.86,9.3,10,17.77,10.42,37.52,18.6,37.52,37.16,0,17.78-11.61,27.6-31.92,27.6-19.09,0-31.64-13.31-34.61-16.21-1.24-1.05-1.86-2.37-.38-4.61Z"/></svg>